<?xml version="1.0" standalone="no"?>
<!DOCTYPE svg PUBLIC "-//W3C//DTD SVG 20010904//EN"
 "http://www.w3.org/TR/2001/REC-SVG-20010904/DTD/svg10.dtd">
<svg version="1.0" xmlns="http://www.w3.org/2000/svg"
 width="1024.000000pt" height="1024.000000pt" viewBox="0 0 1024.000000 1024.000000"
 preserveAspectRatio="xMidYMid meet">
<metadata>
Created by potrace 1.16, written by Peter Selinger 2001-2019
</metadata>
<g transform="translate(0.000000,1024.000000) scale(0.100000,-0.100000)"
fill="#000000" stroke="none">
<path d="M0 5120 l0 -5120 5120 0 5120 0 0 5120 0 5120 -5120 0 -5120 0 0
-5120z m6513 2516 c-1 -74 1 -137 5 -140 5 -3 46 6 92 20 107 31 180 32 206 3
18 -20 19 -53 19 -1091 l0 -1070 -24 -19 c-20 -16 -40 -19 -136 -19 -344 0
-706 -62 -1000 -172 -128 -47 -199 -81 -310 -149 -87 -52 -140 -69 -225 -69
-80 0 -138 17 -196 55 -132 87 -356 181 -556 234 -256 68 -418 92 -691 100
-214 6 -219 6 -238 30 -18 23 -19 55 -19 1085 0 1200 -7 1106 78 1106 26 0 89
-12 141 -26 76 -21 95 -23 102 -12 5 7 9 70 9 141 l0 127 40 0 c113 0 383 -56
560 -117 116 -39 306 -126 385 -175 138 -87 289 -224 353 -321 l26 -39 24 28
c84 101 131 150 197 204 268 219 641 368 1039 414 61 7 113 11 116 10 3 -1 5
-64 3 -138z m794 -2985 c63 -29 80 -79 48 -141 -16 -30 -60 -70 -79 -70 -6 0
-24 20 -39 45 -41 65 -81 95 -125 95 -53 0 -95 -30 -123 -86 -19 -41 -23 -68
-27 -186 l-5 -138 132 0 131 0 0 -40 0 -40 -130 0 -130 0 0 -335 c0 -417 1
-422 120 -432 58 -6 60 -7 60 -34 l0 -29 -245 0 -245 0 0 25 c0 20 7 26 39 35
22 6 49 22 61 37 20 25 20 35 18 377 l-3 351 -57 3 -58 3 0 34 c0 36 4 38 90
47 24 3 25 7 36 103 7 55 18 116 25 135 28 79 97 160 174 206 92 53 253 70
332 35z m-1405 -618 c3 -700 -2 -655 75 -695 69 -37 58 -51 -59 -72 -162 -29
-169 -30 -179 -15 -5 8 -13 37 -19 65 l-11 52 -32 -29 c-97 -90 -250 -121
-386 -80 -124 38 -222 150 -256 292 -51 219 27 451 194 570 124 89 306 104
439 35 19 -10 36 -16 38 -13 3 2 1 79 -2 171 -8 194 -18 222 -89 242 -29 8
-41 17 -43 32 -3 20 1 22 45 22 55 1 186 23 223 38 14 6 33 11 42 11 16 1 18
-40 20 -626z m-3288 557 c43 -11 100 -32 128 -47 65 -36 132 -111 153 -172 17
-51 22 -156 9 -206 -13 -55 -52 -121 -93 -158 -38 -34 -129 -87 -150 -87 -5 0
-21 -4 -36 -10 -23 -9 -24 -12 -14 -32 28 -52 301 -399 364 -463 63 -63 86
-79 148 -99 10 -3 17 -15 17 -30 0 -22 -5 -25 -56 -32 -71 -8 -165 0 -226 21
-90 31 -172 125 -402 463 l-97 142 -56 0 -56 0 5 -247 c3 -191 8 -253 19 -271
14 -22 57 -40 113 -44 24 -3 30 -8 31 -30 l1 -28 -262 0 c-144 0 -269 -3 -278
-6 -13 -5 -16 1 -16 29 l0 35 57 4 c46 4 61 10 80 32 l23 27 0 527 c0 321 -4
541 -10 563 -14 50 -41 71 -100 77 -47 4 -50 6 -50 33 l0 29 338 0 c305 0 347
-2 416 -20z m3786 -27 c62 -56 47 -159 -28 -190 -104 -43 -212 50 -172 148 20
48 55 69 116 69 44 0 59 -5 84 -27z m-2678 -400 c68 -30 139 -102 169 -170 14
-31 23 -79 26 -136 l6 -88 -294 1 -294 1 2 -65 c2 -90 26 -156 78 -214 62 -69
127 -96 230 -97 101 0 168 23 230 77 42 37 48 39 62 25 14 -14 12 -19 -15 -59
-45 -66 -126 -136 -190 -166 -81 -37 -213 -43 -309 -13 -235 72 -358 351 -271
616 82 250 350 385 570 288z m938 8 c58 -30 87 -57 113 -106 21 -38 22 -53 23
-347 1 -346 2 -351 71 -364 33 -6 48 -3 104 20 30 13 32 -25 2 -56 -45 -47
-119 -78 -186 -78 -76 0 -116 24 -148 87 -13 27 -25 50 -26 52 -1 2 -25 -17
-53 -42 -84 -75 -128 -92 -246 -92 -92 0 -104 2 -141 27 -54 35 -83 85 -90
153 -15 147 94 243 366 324 57 17 114 31 128 31 34 0 43 33 37 136 -8 149 -53
204 -168 204 -102 0 -148 -40 -167 -146 -6 -32 -13 -69 -15 -81 -4 -21 -10
-23 -61 -23 -87 0 -108 31 -83 121 13 46 79 122 136 155 72 42 128 54 249 51
92 -2 117 -7 155 -26z m1772 -379 c3 -460 2 -450 78 -473 32 -10 40 -17 40
-36 l0 -23 -215 0 -215 0 0 23 c0 18 9 26 43 37 75 26 77 38 77 383 0 247 -3
303 -15 327 -15 30 -61 60 -90 60 -9 0 -15 9 -15 24 0 27 20 35 85 36 22 1 78
12 125 24 47 13 88 24 92 25 4 0 8 -183 10 -407z m1328 354 c0 -21 -6 -25 -42
-31 -53 -9 -78 -30 -78 -66 0 -35 231 -602 241 -592 4 5 55 129 113 276 133
337 135 363 27 384 -35 6 -45 13 -47 31 l-4 22 176 0 175 0 -3 -27 c-2 -21
-10 -29 -35 -35 -19 -5 -43 -23 -59 -43 -14 -19 -86 -180 -159 -357 -194 -474
-273 -656 -310 -718 -39 -64 -105 -130 -155 -156 -42 -22 -131 -24 -178 -5
-82 34 -81 171 2 171 13 0 45 -9 71 -20 55 -24 96 -25 134 -6 53 28 114 113
146 205 11 33 8 42 -35 140 -26 58 -107 241 -180 406 -72 165 -143 314 -156
332 -13 17 -40 37 -59 44 -29 11 -35 18 -35 41 l0 28 225 0 225 0 0 -24z"/>
<path d="M3907 7613 c-4 -3 -7 -413 -7 -910 0 -714 3 -905 13 -908 6 -3 66
-14 132 -25 149 -25 313 -69 434 -115 188 -71 440 -216 541 -311 l50 -47 -2
834 -3 834 -46 70 c-131 201 -342 353 -649 468 -96 36 -296 90 -380 102 -25 3
-52 8 -61 11 -8 2 -18 1 -22 -3z"/>
<path d="M6320 7613 c-86 -13 -239 -49 -320 -75 -101 -32 -311 -128 -395 -180
-150 -95 -278 -213 -354 -330 l-41 -63 0 -833 0 -833 58 49 c255 218 586 362
972 423 l140 22 0 914 c0 863 -1 913 -17 912 -10 -1 -29 -4 -43 -6z"/>
<path d="M3580 6426 l0 -963 178 -6 c430 -14 897 -141 1225 -334 43 -25 80
-43 84 -40 9 10 -179 192 -242 234 -271 181 -600 299 -945 337 l-105 12 -3
831 -2 832 -21 12 c-21 11 -146 49 -161 49 -5 0 -8 -434 -8 -964z"/>
<path d="M6606 7370 c-37 -10 -73 -23 -80 -30 -8 -8 -11 -233 -11 -843 l0
-832 -138 -17 c-389 -47 -739 -186 -998 -394 -69 -55 -166 -160 -157 -170 3
-3 32 12 64 32 305 195 874 344 1317 344 l97 0 0 965 c0 766 -3 965 -12 964
-7 0 -44 -9 -82 -19z"/>
<path d="M5416 4116 c-159 -59 -239 -327 -165 -549 48 -144 127 -207 258 -207
74 0 126 15 161 48 l29 27 7 292 c8 331 10 321 -72 369 -56 33 -158 42 -218
20z"/>
<path d="M2260 4504 c-6 -14 -10 -140 -10 -284 l0 -259 35 -7 c54 -10 184 5
235 27 55 24 95 61 123 114 19 34 22 56 22 145 0 97 -2 109 -27 152 -58 97
-142 138 -284 138 -81 0 -85 -1 -94 -26z"/>
<path d="M3507 4116 c-86 -31 -148 -113 -163 -219 l-6 -47 203 2 204 3 0 80
c-1 98 -23 143 -89 174 -48 24 -95 26 -149 7z"/>
<path d="M4515 3701 c-176 -50 -258 -154 -211 -264 42 -100 153 -113 260 -32
l46 36 0 139 c0 160 7 151 -95 121z"/>
</g>
</svg>
